<svg xmlns="http://www.w3.org/2000/svg" xmlns:xlink="http://www.w3.org/1999/xlink" width="112.5" viewBox="0 0 112.5 30" height="30" version="1.0"><defs><g id="a"><path d="M 13.5625 -0.421875 C 13.5625 -0.328125 13.539062 -0.25 13.5 -0.1875 C 13.46875 -0.125 13.390625 -0.0703125 13.265625 -0.03125 C 13.148438 0.0078125 12.972656 0.0351562 12.734375 0.046875 C 12.492188 0.0664062 12.171875 0.078125 11.765625 0.078125 C 11.421875 0.078125 11.144531 0.0664062 10.9375 0.046875 C 10.726562 0.0351562 10.5625 0.0078125 10.4375 -0.03125 C 10.320312 -0.0820312 10.238281 -0.140625 10.1875 -0.203125 C 10.144531 -0.273438 10.109375 -0.363281 10.078125 -0.46875 L 8.640625 -4.03125 C 8.472656 -4.425781 8.304688 -4.78125 8.140625 -5.09375 C 7.972656 -5.40625 7.789062 -5.664062 7.59375 -5.875 C 7.394531 -6.082031 7.160156 -6.238281 6.890625 -6.34375 C 6.628906 -6.457031 6.328125 -6.515625 5.984375 -6.515625 L 4.96875 -6.515625 L 4.96875 -0.4375 C 4.96875 -0.351562 4.941406 -0.28125 4.890625 -0.21875 C 4.835938 -0.15625 4.75 -0.101562 4.625 -0.0625 C 4.5 -0.0195312 4.332031 0.0078125 4.125 0.03125 C 3.925781 0.0625 3.664062 0.078125 3.34375 0.078125 C 3.03125 0.078125 2.769531 0.0625 2.5625 0.03125 C 2.351562 0.0078125 2.1875 -0.0195312 2.0625 -0.0625 C 1.945312 -0.101562 1.863281 -0.15625 1.8125 -0.21875 C 1.757812 -0.28125 1.734375 -0.351562 1.734375 -0.4375 L 1.734375 -14.90625 C 1.734375 -15.269531 1.828125 -15.53125 2.015625 -15.6875 C 2.203125 -15.851562 2.429688 -15.9375 2.703125 -15.9375 L 6.828125 -15.9375 C 7.242188 -15.9375 7.585938 -15.925781 7.859375 -15.90625 C 8.128906 -15.894531 8.375 -15.875 8.59375 -15.84375 C 9.238281 -15.757812 9.816406 -15.601562 10.328125 -15.375 C 10.835938 -15.15625 11.269531 -14.863281 11.625 -14.5 C 11.988281 -14.144531 12.265625 -13.722656 12.453125 -13.234375 C 12.640625 -12.753906 12.734375 -12.195312 12.734375 -11.5625 C 12.734375 -11.03125 12.664062 -10.539062 12.53125 -10.09375 C 12.394531 -9.65625 12.191406 -9.265625 11.921875 -8.921875 C 11.660156 -8.578125 11.335938 -8.273438 10.953125 -8.015625 C 10.566406 -7.765625 10.128906 -7.5625 9.640625 -7.40625 C 9.878906 -7.289062 10.101562 -7.148438 10.3125 -6.984375 C 10.519531 -6.828125 10.71875 -6.628906 10.90625 -6.390625 C 11.09375 -6.160156 11.265625 -5.894531 11.421875 -5.59375 C 11.585938 -5.289062 11.75 -4.953125 11.90625 -4.578125 L 13.25 -1.4375 C 13.375 -1.125 13.457031 -0.894531 13.5 -0.75 C 13.539062 -0.613281 13.5625 -0.503906 13.5625 -0.421875 Z M 9.390625 -11.234375 C 9.390625 -11.753906 9.269531 -12.195312 9.03125 -12.5625 C 8.789062 -12.925781 8.398438 -13.179688 7.859375 -13.328125 C 7.691406 -13.367188 7.503906 -13.398438 7.296875 -13.421875 C 7.085938 -13.441406 6.796875 -13.453125 6.421875 -13.453125 L 4.96875 -13.453125 L 4.96875 -8.9375 L 6.625 -8.9375 C 7.082031 -8.9375 7.484375 -8.988281 7.828125 -9.09375 C 8.171875 -9.207031 8.457031 -9.363281 8.6875 -9.5625 C 8.914062 -9.769531 9.085938 -10.015625 9.203125 -10.296875 C 9.328125 -10.578125 9.390625 -10.890625 9.390625 -11.234375 Z M 9.390625 -11.234375"/></g><g id="b"><path d="M 11.703125 -6.234375 C 11.703125 -5.859375 11.613281 -5.578125 11.4375 -5.390625 C 11.269531 -5.210938 11.039062 -5.125 10.75 -5.125 L 4.0625 -5.125 C 4.0625 -4.65625 4.113281 -4.226562 4.21875 -3.84375 C 4.332031 -3.46875 4.507812 -3.144531 4.75 -2.875 C 5 -2.601562 5.3125 -2.398438 5.6875 -2.265625 C 6.070312 -2.128906 6.53125 -2.0625 7.0625 -2.0625 C 7.601562 -2.0625 8.078125 -2.097656 8.484375 -2.171875 C 8.898438 -2.253906 9.257812 -2.34375 9.5625 -2.4375 C 9.863281 -2.53125 10.113281 -2.613281 10.3125 -2.6875 C 10.507812 -2.769531 10.664062 -2.8125 10.78125 -2.8125 C 10.851562 -2.8125 10.914062 -2.796875 10.96875 -2.765625 C 11.019531 -2.734375 11.0625 -2.679688 11.09375 -2.609375 C 11.125 -2.535156 11.144531 -2.429688 11.15625 -2.296875 C 11.175781 -2.160156 11.1875 -1.988281 11.1875 -1.78125 C 11.1875 -1.601562 11.179688 -1.453125 11.171875 -1.328125 C 11.160156 -1.203125 11.144531 -1.09375 11.125 -1 C 11.113281 -0.90625 11.09375 -0.828125 11.0625 -0.765625 C 11.03125 -0.703125 10.984375 -0.640625 10.921875 -0.578125 C 10.867188 -0.523438 10.722656 -0.445312 10.484375 -0.34375 C 10.253906 -0.25 9.953125 -0.15625 9.578125 -0.0625 C 9.210938 0.03125 8.789062 0.109375 8.3125 0.171875 C 7.832031 0.242188 7.320312 0.28125 6.78125 0.28125 C 5.800781 0.28125 4.941406 0.160156 4.203125 -0.078125 C 3.472656 -0.328125 2.863281 -0.703125 2.375 -1.203125 C 1.882812 -1.703125 1.515625 -2.332031 1.265625 -3.09375 C 1.023438 -3.863281 0.90625 -4.757812 0.90625 -5.78125 C 0.90625 -6.757812 1.03125 -7.640625 1.28125 -8.421875 C 1.539062 -9.210938 1.910156 -9.878906 2.390625 -10.421875 C 2.878906 -10.972656 3.46875 -11.390625 4.15625 -11.671875 C 4.851562 -11.960938 5.640625 -12.109375 6.515625 -12.109375 C 7.429688 -12.109375 8.210938 -11.972656 8.859375 -11.703125 C 9.515625 -11.429688 10.050781 -11.050781 10.46875 -10.5625 C 10.894531 -10.082031 11.207031 -9.515625 11.40625 -8.859375 C 11.601562 -8.203125 11.703125 -7.488281 11.703125 -6.71875 Z M 8.6875 -7.125 C 8.71875 -7.988281 8.546875 -8.664062 8.171875 -9.15625 C 7.796875 -9.65625 7.21875 -9.90625 6.4375 -9.90625 C 6.039062 -9.90625 5.695312 -9.832031 5.40625 -9.6875 C 5.113281 -9.539062 4.867188 -9.34375 4.671875 -9.09375 C 4.484375 -8.84375 4.335938 -8.546875 4.234375 -8.203125 C 4.140625 -7.867188 4.082031 -7.507812 4.0625 -7.125 Z M 8.6875 -7.125"/></g><g id="c"><path d="M 10.90625 -0.375 C 10.90625 -0.257812 10.863281 -0.171875 10.78125 -0.109375 C 10.695312 -0.046875 10.566406 0 10.390625 0.03125 C 10.222656 0.0625 9.960938 0.078125 9.609375 0.078125 C 9.242188 0.078125 8.976562 0.0625 8.8125 0.03125 C 8.644531 0 8.523438 -0.046875 8.453125 -0.109375 C 8.378906 -0.171875 8.34375 -0.257812 8.34375 -0.375 L 8.34375 -1.25 C 7.894531 -0.769531 7.378906 -0.394531 6.796875 -0.125 C 6.222656 0.144531 5.582031 0.28125 4.875 0.28125 C 4.289062 0.28125 3.753906 0.203125 3.265625 0.046875 C 2.773438 -0.0976562 2.351562 -0.320312 2 -0.625 C 1.644531 -0.925781 1.367188 -1.296875 1.171875 -1.734375 C 0.972656 -2.179688 0.875 -2.695312 0.875 -3.28125 C 0.875 -3.925781 1 -4.484375 1.25 -4.953125 C 1.5 -5.429688 1.867188 -5.820312 2.359375 -6.125 C 2.859375 -6.4375 3.476562 -6.664062 4.21875 -6.8125 C 4.957031 -6.957031 5.816406 -7.03125 6.796875 -7.03125 L 7.875 -7.03125 L 7.875 -7.703125 C 7.875 -8.046875 7.835938 -8.34375 7.765625 -8.59375 C 7.691406 -8.851562 7.570312 -9.066406 7.40625 -9.234375 C 7.25 -9.410156 7.035156 -9.539062 6.765625 -9.625 C 6.503906 -9.707031 6.175781 -9.75 5.78125 -9.75 C 5.269531 -9.75 4.8125 -9.691406 4.40625 -9.578125 C 4 -9.460938 3.640625 -9.332031 3.328125 -9.1875 C 3.015625 -9.050781 2.753906 -8.925781 2.546875 -8.8125 C 2.335938 -8.695312 2.164062 -8.640625 2.03125 -8.640625 C 1.9375 -8.640625 1.851562 -8.664062 1.78125 -8.71875 C 1.71875 -8.78125 1.660156 -8.863281 1.609375 -8.96875 C 1.566406 -9.082031 1.535156 -9.21875 1.515625 -9.375 C 1.492188 -9.53125 1.484375 -9.703125 1.484375 -9.890625 C 1.484375 -10.140625 1.5 -10.335938 1.53125 -10.484375 C 1.570312 -10.640625 1.648438 -10.773438 1.765625 -10.890625 C 1.890625 -11.003906 2.09375 -11.132812 2.375 -11.28125 C 2.664062 -11.425781 3.003906 -11.5625 3.390625 -11.6875 C 3.773438 -11.8125 4.191406 -11.910156 4.640625 -11.984375 C 5.097656 -12.066406 5.570312 -12.109375 6.0625 -12.109375 C 6.914062 -12.109375 7.648438 -12.019531 8.265625 -11.84375 C 8.878906 -11.675781 9.382812 -11.414062 9.78125 -11.0625 C 10.175781 -10.71875 10.460938 -10.269531 10.640625 -9.71875 C 10.816406 -9.175781 10.90625 -8.523438 10.90625 -7.765625 Z M 7.875 -5.078125 L 6.6875 -5.078125 C 6.1875 -5.078125 5.757812 -5.039062 5.40625 -4.96875 C 5.050781 -4.894531 4.765625 -4.785156 4.546875 -4.640625 C 4.328125 -4.492188 4.164062 -4.316406 4.0625 -4.109375 C 3.957031 -3.898438 3.90625 -3.660156 3.90625 -3.390625 C 3.90625 -2.929688 4.050781 -2.566406 4.34375 -2.296875 C 4.632812 -2.035156 5.035156 -1.90625 5.546875 -1.90625 C 5.984375 -1.90625 6.382812 -2.015625 6.75 -2.234375 C 7.113281 -2.460938 7.488281 -2.789062 7.875 -3.21875 Z M 7.875 -5.078125"/></g><g id="d"><path d="M 11.453125 -10.640625 C 11.453125 -10.242188 11.40625 -9.953125 11.3125 -9.765625 C 11.226562 -9.578125 11.117188 -9.484375 10.984375 -9.484375 L 9.6875 -9.484375 C 9.875 -9.285156 10.003906 -9.0625 10.078125 -8.8125 C 10.160156 -8.5625 10.203125 -8.300781 10.203125 -8.03125 C 10.203125 -7.382812 10.09375 -6.8125 9.875 -6.3125 C 9.664062 -5.820312 9.359375 -5.40625 8.953125 -5.0625 C 8.554688 -4.726562 8.078125 -4.472656 7.515625 -4.296875 C 6.953125 -4.117188 6.328125 -4.03125 5.640625 -4.03125 C 5.285156 -4.03125 4.945312 -4.070312 4.625 -4.15625 C 4.3125 -4.238281 4.066406 -4.335938 3.890625 -4.453125 C 3.796875 -4.347656 3.707031 -4.222656 3.625 -4.078125 C 3.550781 -3.929688 3.515625 -3.765625 3.515625 -3.578125 C 3.515625 -3.335938 3.617188 -3.140625 3.828125 -2.984375 C 4.035156 -2.835938 4.328125 -2.757812 4.703125 -2.75 L 7.375 -2.640625 C 8 -2.617188 8.554688 -2.53125 9.046875 -2.375 C 9.535156 -2.226562 9.945312 -2.015625 10.28125 -1.734375 C 10.613281 -1.460938 10.863281 -1.132812 11.03125 -0.75 C 11.207031 -0.363281 11.296875 0.0703125 11.296875 0.5625 C 11.296875 1.101562 11.175781 1.613281 10.9375 2.09375 C 10.707031 2.570312 10.351562 2.988281 9.875 3.34375 C 9.394531 3.695312 8.796875 3.976562 8.078125 4.1875 C 7.359375 4.394531 6.519531 4.5 5.5625 4.5 C 4.625 4.5 3.820312 4.421875 3.15625 4.265625 C 2.5 4.117188 1.957031 3.914062 1.53125 3.65625 C 1.113281 3.394531 0.804688 3.082031 0.609375 2.71875 C 0.421875 2.351562 0.328125 1.953125 0.328125 1.515625 C 0.328125 1.242188 0.363281 0.984375 0.4375 0.734375 C 0.507812 0.492188 0.613281 0.257812 0.75 0.03125 C 0.882812 -0.195312 1.050781 -0.410156 1.25 -0.609375 C 1.445312 -0.816406 1.671875 -1.015625 1.921875 -1.203125 C 1.566406 -1.390625 1.289062 -1.644531 1.09375 -1.96875 C 0.90625 -2.300781 0.8125 -2.660156 0.8125 -3.046875 C 0.8125 -3.523438 0.921875 -3.960938 1.140625 -4.359375 C 1.367188 -4.765625 1.65625 -5.125 2 -5.4375 C 1.71875 -5.726562 1.488281 -6.070312 1.3125 -6.46875 C 1.144531 -6.875 1.0625 -7.378906 1.0625 -7.984375 C 1.0625 -8.617188 1.171875 -9.1875 1.390625 -9.6875 C 1.617188 -10.195312 1.929688 -10.625 2.328125 -10.96875 C 2.734375 -11.320312 3.21875 -11.59375 3.78125 -11.78125 C 4.34375 -11.96875 4.957031 -12.0625 5.625 -12.0625 C 5.96875 -12.0625 6.296875 -12.039062 6.609375 -12 C 6.929688 -11.957031 7.226562 -11.898438 7.5 -11.828125 L 10.984375 -11.828125 C 11.117188 -11.828125 11.226562 -11.734375 11.3125 -11.546875 C 11.40625 -11.367188 11.453125 -11.066406 11.453125 -10.640625 Z M 7.46875 -8.046875 C 7.46875 -8.628906 7.300781 -9.082031 6.96875 -9.40625 C 6.644531 -9.738281 6.1875 -9.90625 5.59375 -9.90625 C 5.289062 -9.90625 5.019531 -9.851562 4.78125 -9.75 C 4.550781 -9.65625 4.359375 -9.519531 4.203125 -9.34375 C 4.054688 -9.164062 3.945312 -8.957031 3.875 -8.71875 C 3.800781 -8.488281 3.765625 -8.242188 3.765625 -7.984375 C 3.765625 -7.429688 3.925781 -6.992188 4.25 -6.671875 C 4.582031 -6.347656 5.039062 -6.1875 5.625 -6.1875 C 5.9375 -6.1875 6.207031 -6.234375 6.4375 -6.328125 C 6.664062 -6.429688 6.851562 -6.566406 7 -6.734375 C 7.15625 -6.910156 7.269531 -7.109375 7.34375 -7.328125 C 7.425781 -7.554688 7.46875 -7.796875 7.46875 -8.046875 Z M 8.203125 0.71875 C 8.203125 0.351562 8.050781 0.0703125 7.75 -0.125 C 7.457031 -0.320312 7.050781 -0.425781 6.53125 -0.4375 L 4.328125 -0.5 C 4.117188 -0.34375 3.945312 -0.191406 3.8125 -0.046875 C 3.6875 0.0859375 3.585938 0.21875 3.515625 0.34375 C 3.441406 0.476562 3.390625 0.609375 3.359375 0.734375 C 3.335938 0.859375 3.328125 0.988281 3.328125 1.125 C 3.328125 1.53125 3.53125 1.835938 3.9375 2.046875 C 4.351562 2.265625 4.941406 2.375 5.703125 2.375 C 6.171875 2.375 6.5625 2.328125 6.875 2.234375 C 7.195312 2.140625 7.457031 2.015625 7.65625 1.859375 C 7.851562 1.703125 7.992188 1.523438 8.078125 1.328125 C 8.160156 1.140625 8.203125 0.9375 8.203125 0.71875 Z M 8.203125 0.71875"/></g><g id="e"><path d="M 12.046875 -0.421875 C 12.046875 -0.335938 12.019531 -0.265625 11.96875 -0.203125 C 11.914062 -0.140625 11.832031 -0.0859375 11.71875 -0.046875 C 11.601562 -0.00390625 11.445312 0.0234375 11.25 0.046875 C 11.050781 0.0664062 10.800781 0.078125 10.5 0.078125 C 10.195312 0.078125 9.941406 0.0664062 9.734375 0.046875 C 9.535156 0.0234375 9.378906 -0.00390625 9.265625 -0.046875 C 9.148438 -0.0859375 9.066406 -0.140625 9.015625 -0.203125 C 8.972656 -0.265625 8.953125 -0.335938 8.953125 -0.421875 L 8.953125 -6.6875 C 8.953125 -7.21875 8.910156 -7.632812 8.828125 -7.9375 C 8.753906 -8.238281 8.644531 -8.5 8.5 -8.71875 C 8.351562 -8.9375 8.160156 -9.101562 7.921875 -9.21875 C 7.691406 -9.34375 7.421875 -9.40625 7.109375 -9.40625 C 6.710938 -9.40625 6.3125 -9.257812 5.90625 -8.96875 C 5.507812 -8.6875 5.09375 -8.269531 4.65625 -7.71875 L 4.65625 -0.421875 C 4.65625 -0.335938 4.628906 -0.265625 4.578125 -0.203125 C 4.523438 -0.140625 4.441406 -0.0859375 4.328125 -0.046875 C 4.210938 -0.00390625 4.054688 0.0234375 3.859375 0.046875 C 3.660156 0.0664062 3.410156 0.078125 3.109375 0.078125 C 2.796875 0.078125 2.539062 0.0664062 2.34375 0.046875 C 2.15625 0.0234375 2 -0.00390625 1.875 -0.046875 C 1.757812 -0.0859375 1.675781 -0.140625 1.625 -0.203125 C 1.570312 -0.265625 1.546875 -0.335938 1.546875 -0.421875 L 1.546875 -11.40625 C 1.546875 -11.488281 1.566406 -11.554688 1.609375 -11.609375 C 1.648438 -11.671875 1.722656 -11.722656 1.828125 -11.765625 C 1.941406 -11.804688 2.082031 -11.835938 2.25 -11.859375 C 2.414062 -11.878906 2.625 -11.890625 2.875 -11.890625 C 3.144531 -11.890625 3.363281 -11.878906 3.53125 -11.859375 C 3.707031 -11.835938 3.84375 -11.804688 3.9375 -11.765625 C 4.03125 -11.722656 4.097656 -11.671875 4.140625 -11.609375 C 4.179688 -11.554688 4.203125 -11.488281 4.203125 -11.40625 L 4.203125 -10.140625 C 4.804688 -10.796875 5.421875 -11.285156 6.046875 -11.609375 C 6.679688 -11.941406 7.335938 -12.109375 8.015625 -12.109375 C 8.765625 -12.109375 9.394531 -11.984375 9.90625 -11.734375 C 10.414062 -11.484375 10.828125 -11.144531 11.140625 -10.71875 C 11.460938 -10.300781 11.691406 -9.804688 11.828125 -9.234375 C 11.972656 -8.671875 12.046875 -7.992188 12.046875 -7.203125 Z M 12.046875 -0.421875"/></g><g id="g"><path d="M 13.375 -0.484375 C 13.375 -0.390625 13.347656 -0.304688 13.296875 -0.234375 C 13.253906 -0.171875 13.171875 -0.113281 13.046875 -0.0625 C 12.921875 -0.0195312 12.742188 0.0078125 12.515625 0.03125 C 12.296875 0.0625 12.019531 0.078125 11.6875 0.078125 C 11.15625 0.078125 10.769531 0.0546875 10.53125 0.015625 C 10.300781 -0.0234375 10.132812 -0.0859375 10.03125 -0.171875 C 9.925781 -0.253906 9.847656 -0.351562 9.796875 -0.46875 L 4.96875 -8.03125 L 4.96875 -0.46875 C 4.96875 -0.375 4.941406 -0.296875 4.890625 -0.234375 C 4.847656 -0.171875 4.765625 -0.113281 4.640625 -0.0625 C 4.515625 -0.0195312 4.347656 0.0078125 4.140625 0.03125 C 3.941406 0.0625 3.679688 0.078125 3.359375 0.078125 C 3.046875 0.078125 2.785156 0.0625 2.578125 0.03125 C 2.367188 0.0078125 2.203125 -0.0195312 2.078125 -0.0625 C 1.953125 -0.113281 1.863281 -0.171875 1.8125 -0.234375 C 1.757812 -0.296875 1.734375 -0.375 1.734375 -0.46875 L 1.734375 -15.484375 C 1.734375 -15.566406 1.757812 -15.640625 1.8125 -15.703125 C 1.863281 -15.773438 1.953125 -15.832031 2.078125 -15.875 C 2.203125 -15.914062 2.367188 -15.945312 2.578125 -15.96875 C 2.785156 -16 3.046875 -16.015625 3.359375 -16.015625 C 3.679688 -16.015625 3.941406 -16 4.140625 -15.96875 C 4.347656 -15.945312 4.515625 -15.914062 4.640625 -15.875 C 4.765625 -15.832031 4.847656 -15.773438 4.890625 -15.703125 C 4.941406 -15.640625 4.96875 -15.566406 4.96875 -15.484375 L 4.96875 -8.6875 L 9.640625 -15.46875 C 9.703125 -15.570312 9.769531 -15.65625 9.84375 -15.71875 C 9.925781 -15.789062 10.035156 -15.847656 10.171875 -15.890625 C 10.304688 -15.929688 10.472656 -15.960938 10.671875 -15.984375 C 10.878906 -16.003906 11.144531 -16.015625 11.46875 -16.015625 C 11.789062 -16.015625 12.054688 -16 12.265625 -15.96875 C 12.484375 -15.945312 12.65625 -15.910156 12.78125 -15.859375 C 12.914062 -15.816406 13.003906 -15.765625 13.046875 -15.703125 C 13.097656 -15.640625 13.125 -15.566406 13.125 -15.484375 C 13.125 -15.335938 13.085938 -15.191406 13.015625 -15.046875 C 12.941406 -14.898438 12.800781 -14.664062 12.59375 -14.34375 L 8.21875 -8.625 L 12.984375 -1.421875 C 13.171875 -1.078125 13.28125 -0.847656 13.3125 -0.734375 C 13.351562 -0.628906 13.375 -0.546875 13.375 -0.484375 Z M 13.375 -0.484375"/></g><g id="h"><path d="M 7.515625 -2.5625 C 7.515625 -1.457031 7.320312 -0.710938 6.9375 -0.328125 C 6.550781 0.046875 5.859375 0.234375 4.859375 0.234375 C 3.859375 0.234375 3.164062 0.046875 2.78125 -0.328125 C 2.40625 -0.703125 2.21875 -1.410156 2.21875 -2.453125 C 2.21875 -3.566406 2.410156 -4.3125 2.796875 -4.6875 C 3.179688 -5.070312 3.878906 -5.265625 4.890625 -5.265625 C 5.878906 -5.265625 6.5625 -5.078125 6.9375 -4.703125 C 7.320312 -4.328125 7.515625 -3.613281 7.515625 -2.5625 Z M 7.515625 -2.5625"/></g></defs><g fill="#FFF"><use x="4.5" y="23.164" xmlns:xlink="http://www.w3.org/1999/xlink" xlink:href="#a" xlink:type="simple" xlink:actuate="onLoad" xlink:show="embed"/></g><g fill="#FFF"><use x="18.699" y="23.164" xmlns:xlink="http://www.w3.org/1999/xlink" xlink:href="#b" xlink:type="simple" xlink:actuate="onLoad" xlink:show="embed"/></g><g fill="#FFF"><use x="31.395" y="23.164" xmlns:xlink="http://www.w3.org/1999/xlink" xlink:href="#c" xlink:type="simple" xlink:actuate="onLoad" xlink:show="embed"/></g><g fill="#FFF"><use x="43.845" y="23.164" xmlns:xlink="http://www.w3.org/1999/xlink" xlink:href="#d" xlink:type="simple" xlink:actuate="onLoad" xlink:show="embed"/></g><g fill="#FFF"><use x="55.802" y="23.164" xmlns:xlink="http://www.w3.org/1999/xlink" xlink:href="#c" xlink:type="simple" xlink:actuate="onLoad" xlink:show="embed"/></g><g fill="#FFF"><use x="68.252" y="23.164" xmlns:xlink="http://www.w3.org/1999/xlink" xlink:href="#e" xlink:type="simple" xlink:actuate="onLoad" xlink:show="embed"/></g><g fill="#FFF"><use x="81.785" y="23.164" xmlns:xlink="http://www.w3.org/1999/xlink" xlink:href="#f" xlink:type="simple" xlink:actuate="onLoad" xlink:show="embed"/></g><g fill="#FFF"><use x="87.487" y="23.164" xmlns:xlink="http://www.w3.org/1999/xlink" xlink:href="#g" xlink:type="simple" xlink:actuate="onLoad" xlink:show="embed"/></g><g fill="#7ED957"><use x="99.982" y="23.089" xmlns:xlink="http://www.w3.org/1999/xlink" xlink:href="#h" xlink:type="simple" xlink:actuate="onLoad" xlink:show="embed"/></g></svg>